<svg width="238" height="238" viewBox="0 0 238 238" fill="none" xmlns="http://www.w3.org/2000/svg">
<path opacity="0.2" fill-rule="evenodd" clip-rule="evenodd" d="M127.837 0.549968C130.058 0.553136 132.231 1.20104 134.092 2.41505C135.952 3.62906 137.42 5.35697 138.318 7.38907L145.095 22.6891C145.769 24.2191 146.09 25.7797 146.09 27.3097C152.757 29.2514 159.191 31.9194 165.276 35.2657C166.247 34.3023 167.381 33.5199 168.627 32.9554L183.468 26.1775C185.596 25.2001 187.973 24.8977 190.279 25.3106C192.585 25.7236 194.709 26.8323 196.366 28.4878L209.172 41.3092C210.743 42.8787 211.826 44.8707 212.288 47.0434C212.749 49.2161 212.57 51.4761 211.773 53.5492L205.729 69.1552C205.159 70.6459 204.284 72.0009 203.159 73.1332C206.494 79.2226 209.172 85.6486 211.115 92.3347C212.479 92.3401 213.831 92.5888 215.108 93.0691L230.408 98.776C232.601 99.5935 234.492 101.062 235.826 102.984C237.161 104.907 237.875 107.192 237.875 109.532V127.662C237.871 129.884 237.224 132.057 236.01 133.917C234.796 135.777 233.068 137.245 231.035 138.143L215.735 144.921C214.281 145.57 212.708 145.909 211.115 145.915C209.17 152.582 206.502 159.015 203.159 165.101C204.077 166.035 204.872 167.152 205.469 168.452L212.262 183.293C213.238 185.423 213.538 187.801 213.122 190.107C212.706 192.413 211.595 194.536 209.937 196.191L197.115 208.997C195.546 210.569 193.554 211.651 191.381 212.113C189.208 212.575 186.948 212.396 184.875 211.598L169.269 205.555C167.779 204.984 166.424 204.109 165.291 202.984C159.2 206.329 152.761 208.997 146.09 210.94C146.084 212.304 145.836 213.657 145.355 214.934L139.649 230.234C138.831 232.426 137.363 234.317 135.44 235.651C133.518 236.986 131.233 237.701 128.893 237.7H110.778C108.553 237.7 106.377 237.053 104.514 235.839C102.651 234.625 101.18 232.895 100.282 230.861L93.5038 215.561C92.8544 214.107 92.5157 212.533 92.5093 210.94C85.843 208.996 79.4094 206.328 73.3231 202.984C72.3524 203.947 71.2177 204.73 69.9724 205.295L55.1314 212.072C53.0027 213.05 50.6259 213.352 48.3203 212.939C46.0146 212.526 43.8906 211.418 42.2335 209.762L29.4274 196.941C27.8557 195.371 26.7734 193.379 26.3117 191.207C25.85 189.034 26.0288 186.774 26.8264 184.701L32.8699 169.095C33.4408 167.604 34.3162 166.25 35.4403 165.117C32.0946 159.021 29.4267 152.577 27.4843 145.9C26.1202 145.894 24.768 145.645 23.491 145.166L8.19101 139.459C5.99816 138.641 4.1077 137.173 2.77317 135.25C1.43863 133.328 0.723827 131.043 0.72461 128.703V110.588C0.724815 108.364 1.37133 106.187 2.58552 104.324C3.79971 102.461 5.52923 100.99 7.56371 100.092L22.8637 93.3139C24.3179 92.6645 25.8917 92.3258 27.4843 92.3194C29.426 85.652 32.094 79.2181 35.4403 73.1332C34.4822 72.1616 33.705 71.0269 33.1453 69.7825L26.3521 54.9415C25.3767 52.8113 25.0767 50.4336 25.4924 48.1278C25.9082 45.8221 27.0197 43.6989 28.6777 42.0436L41.4838 29.2375C43.0547 27.6628 45.0494 26.5787 47.2252 26.1169C49.401 25.6551 51.664 25.8356 53.7391 26.6365L69.3451 32.68C70.9057 33.292 72.2368 34.1641 73.3231 35.2504C79.4093 31.9068 85.8429 29.2389 92.5093 27.2944C92.5148 25.9302 92.7635 24.5779 93.2437 23.3011L98.9506 8.00107C99.7682 5.80821 101.237 3.91776 103.159 2.58322C105.082 1.24869 107.366 0.533885 109.707 0.534669L127.837 0.549968Z" fill="black"/>
</svg>
