<svg width="238" height="238" viewBox="0 0 238 238" fill="none" xmlns="http://www.w3.org/2000/svg">
<path fill-rule="evenodd" clip-rule="evenodd" d="M91.9496 146.05C95.4987 149.607 99.7154 152.427 104.358 154.349C109 156.271 113.976 157.257 119 157.25C129.282 157.25 138.921 153.165 146.05 146.05C149.607 142.501 152.427 138.285 154.349 133.643C156.271 129 157.257 124.024 157.25 119C157.25 108.718 153.165 99.0794 146.05 91.9496C142.501 88.3933 138.285 85.5731 133.643 83.6511C129 81.7292 124.024 80.7433 119 80.75C108.718 80.75 99.0794 84.8351 91.9496 91.9496C88.3933 95.4987 85.5731 99.7154 83.6511 104.358C81.7292 109 80.7433 113.976 80.75 119C80.75 129.282 84.8351 138.921 91.9496 146.05ZM135.233 135.233C130.949 139.517 125.181 141.95 119 141.95C112.819 141.95 107.066 139.502 102.782 135.218C98.498 130.934 96.05 125.197 96.05 119C96.05 112.804 98.498 107.066 102.782 102.782C107.066 98.498 112.819 96.05 119 96.05C125.181 96.05 130.934 98.498 135.218 102.782C139.502 107.066 141.95 112.819 141.95 119C141.95 125.181 139.502 130.934 135.218 135.218" fill="black"/>
<path fill-rule="evenodd" clip-rule="evenodd" d="M183.505 23.7269L164.074 34.6511C158.391 31.6045 152.414 29.1438 146.234 27.3071L139.043 5.67295C138.538 4.1474 137.566 2.81946 136.264 1.87748C134.963 0.935509 133.397 0.427336 131.791 0.425049H104.618C102.95 0.426484 101.329 0.972862 100 1.98099C98.6715 2.98912 97.7088 4.40377 97.2585 6.00955L91.2609 27.4754C85.0877 29.3436 79.1205 31.835 73.4517 34.9113L53.0568 24.6755C51.6187 23.9552 49.9901 23.7064 48.4025 23.9646C46.8149 24.2228 45.3491 24.9748 44.2134 26.1137L24.9813 45.3305C23.8004 46.5117 23.0385 48.047 22.8119 49.7018C22.5854 51.3566 22.9067 53.0401 23.7267 54.4952L34.6509 73.9262C31.6062 79.5872 29.1429 85.5543 27.3069 91.766L5.6727 98.957C4.14716 99.4616 2.81921 100.434 1.87724 101.735C0.935265 103.037 0.427092 104.602 0.424805 106.209V133.397C0.42624 135.065 0.972618 136.687 1.98075 138.015C2.98887 139.344 4.40352 140.306 6.0093 140.757L27.4752 146.754C29.3418 152.951 31.8357 158.902 34.911 164.563L24.6753 184.958C23.9549 186.396 23.7061 188.025 23.9643 189.613C24.2225 191.2 24.9745 192.666 26.1135 193.802L45.3303 213.019C46.5115 214.199 48.0467 214.961 49.7015 215.188C51.3564 215.414 53.0399 215.093 54.495 214.273L73.926 203.349C79.587 206.394 85.554 208.857 91.7658 210.693L98.9568 232.327C99.4613 233.853 100.433 235.181 101.735 236.123C103.037 237.065 104.602 237.573 106.209 237.575H133.397C135.065 237.574 136.686 237.027 138.015 236.019C139.343 235.011 140.306 233.596 140.756 231.991L146.754 210.525C152.927 208.657 158.895 206.165 164.563 203.089L184.958 213.325C186.395 214.047 188.022 214.298 189.61 214.043C191.197 213.787 192.664 213.038 193.801 211.902L213.018 192.67C214.199 191.488 214.961 189.953 215.188 188.298C215.414 186.643 215.093 184.96 214.273 183.505L203.349 164.074C206.393 158.413 208.857 152.446 210.693 146.234L232.327 139.043C233.852 138.539 235.18 137.566 236.122 136.265C237.064 134.963 237.573 133.398 237.575 131.791V104.618C237.573 102.95 237.027 101.329 236.019 100C235.011 98.6717 233.596 97.709 231.99 97.2588L210.524 91.2611C208.657 85.0877 206.165 79.1205 203.089 73.4519L213.324 53.057C214.047 51.6205 214.298 49.9928 214.042 48.4053C213.787 46.8178 213.038 45.3511 211.901 44.2136L192.669 24.9968C191.488 23.8159 189.953 23.054 188.298 22.8275C186.643 22.6009 184.96 22.9069 183.505 23.7269ZM167.837 50.1194L185.953 39.9143L197.167 51.1292L187.574 70.2542C186.997 71.4082 186.721 72.6895 186.772 73.9789C186.822 75.2683 187.199 76.5239 187.865 77.6288C191.92 84.3608 194.964 91.6742 196.892 99.3242C197.22 100.633 197.888 101.832 198.828 102.799C199.769 103.766 200.948 104.468 202.247 104.832L222.275 110.432V126.298L201.972 133.03C200.746 133.436 199.643 134.146 198.766 135.093C197.888 136.04 197.265 137.193 196.953 138.446C195.058 146.09 192.042 153.412 188.003 160.172C187.309 161.329 186.934 162.649 186.915 163.998C186.897 165.347 187.235 166.677 187.896 167.853L198.101 185.968L186.886 197.183L167.761 187.59C166.607 187.012 165.326 186.736 164.036 186.787C162.747 186.838 161.491 187.214 160.386 187.881C153.654 191.935 146.341 194.98 138.691 196.908C137.382 197.235 136.183 197.903 135.216 198.844C134.249 199.784 133.547 200.964 133.183 202.263L127.583 222.29H111.732L105 201.987C104.593 200.76 103.881 199.656 102.931 198.778C101.981 197.901 100.825 197.278 99.5688 196.969C91.9249 195.073 84.6036 192.057 77.8428 188.018C76.6857 187.325 75.3658 186.95 74.0169 186.931C72.6681 186.912 71.3382 187.25 70.1622 187.911L52.047 198.116L40.8321 186.901L50.4252 167.776C51.0027 166.622 51.2788 165.341 51.228 164.052C51.1772 162.762 50.801 161.507 50.1345 160.402C46.0715 153.655 43.0295 146.344 41.1075 138.706C40.7799 137.398 40.112 136.199 39.1715 135.232C38.2311 134.264 37.0515 133.563 35.7525 133.198L15.7248 127.599V111.733L36.0279 105.001C37.2525 104.591 38.3534 103.878 39.2282 102.928C40.103 101.979 40.7232 100.823 41.031 99.569C42.9435 91.919 45.9729 84.5903 49.9968 77.843C50.6903 76.6859 51.0654 75.366 51.0842 74.0172C51.103 72.6683 50.7648 71.3384 50.1039 70.1624L39.8988 52.0472L51.1137 40.8323L70.2387 50.4254C71.3927 51.0029 72.674 51.2791 73.9634 51.2282C75.2528 51.1774 76.5084 50.8012 77.6133 50.1347C84.3453 46.0802 91.6587 43.0355 99.3087 41.1077C100.617 40.7801 101.816 40.1122 102.784 39.1718C103.751 38.2313 104.452 37.0518 104.817 35.7527L110.417 15.725H126.283L133.015 36.0281C133.423 37.2509 134.133 38.3506 135.08 39.2253C136.027 40.1 137.18 40.7212 138.431 41.0312C146.081 42.9437 153.409 45.9731 160.157 49.997C161.314 50.6905 162.634 51.0657 163.983 51.0845C165.332 51.1033 166.661 50.7804 167.837 50.1194Z" fill="black"/>
</svg>
