<svg width="35" height="32" viewBox="0 0 35 32" fill="none" xmlns="http://www.w3.org/2000/svg">
<path d="M1.86393 31.9675L1.86083 31.9667C1.61258 31.898 1.40605 31.7317 1.28242 31.5106C1.15908 31.2899 1.12625 31.0298 1.18914 30.786L1.18926 30.7856C1.7686 28.5489 3.21964 27.1528 4.79433 26.2539C6.34895 25.3665 8.05241 24.9476 9.19797 24.6659L9.21398 24.6619L9.21412 24.6619C9.74429 24.5317 10.1199 24.4361 10.2851 24.3616L10.2858 24.3613C11.7556 23.7013 12.6495 22.7456 13.0249 21.5233C11.7208 20.2129 10.6387 18.429 9.92214 16.4293C8.8542 15.18 8.19452 13.7713 8.19452 12.5207C8.19452 11.6916 8.48533 10.9898 9.06628 10.4682C9.48401 5.21636 13.2388 1.02585 17.9205 1.00001L17.9302 0.999954L17.9302 1.00005L18.0652 1.00192L18.0657 1.00193C22.8433 1.07265 26.5887 5.39784 26.8863 10.7618C27.2857 11.2499 27.4789 11.8485 27.4789 12.5197C27.4789 13.5823 27.0015 14.7589 26.1994 15.8591C25.4621 18.1856 24.2108 20.2889 22.6874 21.7332C23.0659 22.9455 23.9579 23.8944 25.4204 24.5517L25.4222 24.5525C25.4893 24.583 25.6208 24.6248 25.8289 24.6778C26.0258 24.7279 26.2604 24.7806 26.5225 24.8395L26.5354 24.8424L26.5357 24.8424L26.5533 24.8464C27.6899 25.101 29.3825 25.4801 30.9279 26.3312C32.4955 27.1945 33.9398 28.559 34.5158 30.7832L1.86393 31.9675ZM1.86393 31.9675C2.11187 32.0344 2.37471 31.9969 2.59402 31.8657C2.81264 31.7348 2.96792 31.5232 3.03207 31.2807L3.0327 31.2782C3.45558 29.6458 4.522 28.6081 5.78944 27.8997C7.07024 27.1838 8.5208 26.8238 9.66211 26.5425L1.86393 31.9675ZM14.7113 20.4728C14.8373 20.5852 14.9309 20.7284 14.9843 20.8869C15.0378 21.0457 15.0498 21.2156 15.0194 21.3801L15.0194 21.3802C14.7433 22.8722 13.815 24.8934 11.0561 26.1324L11.0552 26.1328C10.7203 26.2824 10.2333 26.4021 9.70102 26.5329L9.66238 26.5424L14.7113 20.4728ZM14.7113 20.4728C13.4428 19.3399 12.35 17.6158 11.6559 15.6055C11.6144 15.4837 11.5488 15.3707 11.4624 15.274L11.0896 15.6073M14.7113 20.4728L11.1829 15.7676C11.1627 15.7081 11.131 15.6536 11.0896 15.6073M11.0896 15.6073C10.1426 14.5422 9.59891 13.4161 9.59891 12.5188C9.59891 11.9947 9.79012 11.6431 10.2206 11.3777C10.285 11.3378 10.3389 11.282 10.3774 11.2152C10.4158 11.1484 10.4376 11.0728 10.4408 10.9952M11.0896 15.6073L11.4633 15.2751C10.5522 14.2503 10.0989 13.2391 10.0989 12.5188C10.0989 12.3181 10.1352 12.1863 10.1874 12.0903C10.239 11.9957 10.3253 11.9005 10.4829 11.8033L10.4836 11.803C10.6197 11.7188 10.7316 11.602 10.8107 11.4647C10.8896 11.3275 10.9338 11.1734 10.9403 11.0161L10.4408 10.9952M10.4408 10.9952C10.641 6.21899 13.9287 2.45917 17.9613 2.4348M10.4408 10.9952L10.9403 11.0156M17.9613 2.4348L10.9403 11.0156M17.9613 2.4348L17.9275 2.93366L17.9463 2.93492M17.9613 2.4348L10.9403 11.0156M17.9613 2.4348L17.9643 2.93479C17.9583 2.93482 17.9523 2.93487 17.9463 2.93492M17.9613 2.4348L18.0583 2.44136C22.1108 2.49949 25.3777 6.33994 25.4946 11.1836C25.4962 11.2498 25.5114 11.3149 25.5392 11.3746C25.567 11.4342 25.6068 11.4871 25.6559 11.5296M10.9403 11.0156C11.1327 6.43394 14.2617 2.96842 17.9463 2.93492M17.9463 2.93492L18.0245 2.94022L18.0378 2.94112L18.0511 2.94131C21.7596 2.99451 24.8823 6.53816 24.9947 11.1957L24.9947 11.196C24.998 11.3306 25.029 11.4634 25.0861 11.5859C25.1432 11.7083 25.2254 11.8182 25.3283 11.9074L25.6559 11.5296M25.6559 11.5296L25.3264 11.9057C25.4866 12.046 25.5718 12.2159 25.5718 12.5207C25.5718 13.1173 25.2545 13.9353 24.5851 14.8175L24.5837 14.8193C24.5161 14.9094 24.4644 15.0102 24.4306 15.117L24.4306 15.117L24.4291 15.122C23.7258 17.4287 22.4703 19.4364 21.0187 20.6453L21.0181 20.6458C20.8845 20.7574 20.7845 20.9027 20.7267 21.0651C20.6689 21.2274 20.6548 21.4022 20.6854 21.5714L20.6858 21.5734C20.9619 23.0646 21.8902 25.0846 24.6488 26.3254L24.6494 26.3257C25.0061 26.4856 25.529 26.6023 26.0954 26.7286L26.1248 26.7352M25.6559 11.5296L26.1248 26.7352M26.1248 26.7352C27.255 26.9882 28.6891 27.3126 29.9544 27.9937C31.205 28.667 32.2561 29.67 32.6724 31.2781L32.6726 31.2787C32.7041 31.3998 32.7585 31.5142 32.8336 31.6152C32.9087 31.7162 33.0031 31.802 33.112 31.8669C33.2211 31.9319 33.3422 31.9744 33.4686 31.9915C33.595 32.0086 33.7234 31.9997 33.8461 31.9655C33.9688 31.9313 34.0828 31.8727 34.1818 31.7939C34.2808 31.7152 34.3628 31.6178 34.4238 31.5082C34.4849 31.3985 34.524 31.2782 34.5397 31.1542C34.5553 31.0304 34.5473 30.9046 34.5159 30.7838L26.1248 26.7352Z" fill="white" stroke="white"/>
</svg>
