<svg width="32" height="32" viewBox="0 0 32 32" fill="none" xmlns="http://www.w3.org/2000/svg">
<path opacity="0.2" fill-rule="evenodd" clip-rule="evenodd" d="M18.492 5.59999C18.7243 5.60032 18.9515 5.66807 19.1461 5.79503C19.3406 5.92198 19.4942 6.10268 19.588 6.31519L20.2968 7.91519C20.3672 8.07519 20.4008 8.23839 20.4008 8.39839C21.0981 8.60145 21.7709 8.88045 22.4072 9.23039C22.5087 9.12965 22.6274 9.04783 22.7576 8.98879L24.3096 8.27999C24.5322 8.17778 24.7808 8.14615 25.0219 8.18934C25.263 8.23253 25.4851 8.34847 25.6584 8.52159L26.9976 9.86239C27.162 10.0265 27.2752 10.2348 27.3234 10.4621C27.3717 10.6893 27.353 10.9256 27.2696 11.1424L26.6376 12.7744C26.578 12.9303 26.4864 13.072 26.3688 13.1904C26.7176 13.8272 26.9976 14.4992 27.2008 15.1984C27.3435 15.199 27.4849 15.225 27.6184 15.2752L29.2184 15.872C29.4477 15.9575 29.6454 16.1111 29.785 16.3121C29.9245 16.5131 29.9993 16.7521 29.9992 16.9968V18.8928C29.9989 19.1251 29.9311 19.3523 29.8042 19.5469C29.6772 19.7414 29.4965 19.8949 29.284 19.9888L27.684 20.6976C27.5319 20.7655 27.3674 20.8009 27.2008 20.8016C26.9974 21.4987 26.7184 22.1715 26.3688 22.808C26.4648 22.9056 26.548 23.0224 26.6104 23.1584L27.3208 24.7104C27.4228 24.9332 27.4542 25.1818 27.4107 25.4229C27.3672 25.664 27.251 25.8861 27.0776 26.0592L25.7368 27.3984C25.5727 27.5627 25.3644 27.6759 25.1372 27.7242C24.9099 27.7725 24.6736 27.7538 24.4568 27.6704L22.8248 27.0384C22.6689 26.9787 22.5273 26.8872 22.4088 26.7696C21.7718 27.1193 21.0985 27.3983 20.4008 27.6016C20.4002 27.7442 20.3742 27.8857 20.324 28.0192L19.7272 29.6192C19.6417 29.8485 19.4882 30.0462 19.2871 30.1858C19.0861 30.3253 18.8472 30.4001 18.6024 30.4H16.708C16.4754 30.4 16.2479 30.3324 16.053 30.2054C15.8581 30.0784 15.7044 29.8975 15.6104 29.6848L14.9016 28.0848C14.8337 27.9327 14.7983 27.7681 14.7976 27.6016C14.1005 27.3982 13.4277 27.1192 12.7912 26.7696C12.6897 26.8703 12.571 26.9521 12.4408 27.0112L10.8888 27.72C10.6662 27.8222 10.4177 27.8538 10.1765 27.8106C9.93543 27.7674 9.71331 27.6515 9.54002 27.4784L8.20082 26.1376C8.03646 25.9735 7.92327 25.7651 7.87499 25.5379C7.82671 25.3107 7.84541 25.0744 7.92882 24.8576L8.56082 23.2256C8.62052 23.0697 8.71207 22.9281 8.82962 22.8096C8.47974 22.1721 8.20075 21.4982 7.99762 20.8C7.85497 20.7993 7.71357 20.7733 7.58002 20.7232L5.98002 20.1264C5.7507 20.0409 5.55301 19.8873 5.41345 19.6863C5.27389 19.4852 5.19914 19.2463 5.19922 19.0016V17.1072C5.19924 16.8746 5.26685 16.647 5.39382 16.4522C5.5208 16.2573 5.70166 16.1036 5.91442 16.0096L7.51442 15.3008C7.66649 15.2329 7.83107 15.1975 7.99762 15.1968C8.20068 14.4996 8.47968 13.8267 8.82962 13.1904C8.72942 13.0888 8.64815 12.9701 8.58962 12.84L7.87922 11.288C7.77721 11.0652 7.74584 10.8166 7.78932 10.5755C7.83279 10.3343 7.94903 10.1123 8.12242 9.93919L9.46162 8.59999C9.6259 8.43532 9.83449 8.32194 10.062 8.27365C10.2896 8.22536 10.5262 8.24424 10.7432 8.32799L12.3752 8.95999C12.5384 9.02399 12.6776 9.11519 12.7912 9.22879C13.4277 8.87913 14.1005 8.60014 14.7976 8.39679C14.7982 8.25413 14.8242 8.11272 14.8744 7.97919L15.4712 6.37919C15.5567 6.14987 15.7103 5.95218 15.9113 5.81262C16.1124 5.67306 16.3513 5.59831 16.596 5.59839L18.492 5.59999Z" fill="black"/>
<path fill-rule="evenodd" clip-rule="evenodd" d="M13.1712 18.8288C13.5423 19.2007 13.9833 19.4956 14.4688 19.6966C14.9542 19.8976 15.4746 20.0007 16 20C17.0752 20 18.0832 19.5728 18.8288 18.8288C19.2007 18.4577 19.4956 18.0167 19.6966 17.5312C19.8976 17.0458 20.0007 16.5254 20 16C20 14.9248 19.5728 13.9168 18.8288 13.1712C18.4577 12.7993 18.0167 12.5044 17.5312 12.3034C17.0458 12.1024 16.5254 11.9993 16 12C14.9248 12 13.9168 12.4272 13.1712 13.1712C12.7993 13.5423 12.5044 13.9833 12.3034 14.4688C12.1024 14.9542 11.9993 15.4746 12 16C12 17.0752 12.4272 18.0832 13.1712 18.8288ZM17.6976 17.6976C17.2496 18.1456 16.6464 18.4 16 18.4C15.3536 18.4 14.752 18.144 14.304 17.696C13.856 17.248 13.6 16.648 13.6 16C13.6 15.352 13.856 14.752 14.304 14.304C14.752 13.856 15.3536 13.6 16 13.6C16.6464 13.6 17.248 13.856 17.696 14.304C18.144 14.752 18.4 15.3536 18.4 16C18.4 16.6464 18.144 17.248 17.696 17.696" fill="black"/>
<path fill-rule="evenodd" clip-rule="evenodd" d="M22.7452 6.03678L20.7132 7.17918C20.119 6.86057 19.4939 6.60325 18.8476 6.41118L18.0956 4.14878C18.0428 3.98924 17.9412 3.85037 17.8051 3.75186C17.6689 3.65336 17.5052 3.60021 17.3372 3.59998H14.4956C14.3212 3.60013 14.1516 3.65726 14.0127 3.76269C13.8738 3.86811 13.7731 4.01605 13.726 4.18398L13.0988 6.42878C12.4532 6.62413 11.8292 6.88468 11.2364 7.20638L9.10361 6.13598C8.95322 6.06064 8.78291 6.03462 8.61689 6.06162C8.45086 6.08862 8.29758 6.16727 8.17881 6.28638L6.16761 8.29598C6.04411 8.4195 5.96443 8.58004 5.94074 8.7531C5.91705 8.92615 5.95065 9.10221 6.03641 9.25438L7.17881 11.2864C6.86041 11.8784 6.60281 12.5024 6.41081 13.152L4.14841 13.904C3.98888 13.9567 3.85001 14.0584 3.7515 14.1945C3.65299 14.3307 3.59985 14.4943 3.59961 14.6624V17.5056C3.59976 17.68 3.6569 17.8496 3.76232 17.9885C3.86775 18.1274 4.01568 18.2281 4.18361 18.2752L6.42841 18.9024C6.62361 19.5504 6.88441 20.1728 7.20601 20.7648L6.13561 22.8976C6.06027 23.048 6.03426 23.2183 6.06126 23.3843C6.08826 23.5503 6.1669 23.7036 6.28601 23.8224L8.29561 25.832C8.41913 25.9555 8.57968 26.0351 8.75273 26.0588C8.92579 26.0825 9.10184 26.0489 9.25401 25.9632L11.286 24.8208C11.878 25.1392 12.502 25.3968 13.1516 25.5888L13.9036 27.8512C13.9564 28.0107 14.058 28.1496 14.1942 28.2481C14.3303 28.3466 14.494 28.3997 14.662 28.4H17.5052C17.6796 28.3998 17.8492 28.3427 17.9881 28.2373C18.127 28.1318 18.2277 27.9839 18.2748 27.816L18.902 25.5712C19.5476 25.3759 20.1716 25.1153 20.7644 24.7936L22.8972 25.864C23.0474 25.9395 23.2176 25.9658 23.3837 25.9391C23.5497 25.9124 23.7031 25.834 23.822 25.7152L25.8316 23.704C25.9551 23.5805 26.0348 23.4199 26.0585 23.2469C26.0822 23.0738 26.0486 22.8977 25.9628 22.7456L24.8204 20.7136C25.1388 20.1216 25.3964 19.4976 25.5884 18.848L27.8508 18.096C28.0103 18.0432 28.1492 17.9416 28.2477 17.8054C28.3462 17.6693 28.3994 17.5056 28.3996 17.3376V14.496C28.3995 14.3216 28.3423 14.152 28.2369 14.0131C28.1315 13.8741 27.9835 13.7735 27.8156 13.7264L25.5708 13.0992C25.3755 12.4536 25.115 11.8296 24.7932 11.2368L25.8636 9.10398C25.9391 8.95375 25.9654 8.78354 25.9387 8.61752C25.912 8.45151 25.8337 8.29813 25.7148 8.17918L23.7036 6.16958C23.5801 6.04608 23.4195 5.9664 23.2465 5.94271C23.0734 5.91902 22.8974 5.95102 22.7452 6.03678ZM21.1068 8.79678L23.0012 7.72958L24.174 8.90238L23.1708 10.9024C23.1104 11.0231 23.0815 11.157 23.0869 11.2919C23.0922 11.4267 23.1315 11.558 23.2012 11.6736C23.6252 12.3776 23.9436 13.1424 24.1452 13.9424C24.1795 14.0792 24.2493 14.2046 24.3477 14.3058C24.446 14.4069 24.5694 14.4803 24.7052 14.5184L26.7996 15.104V16.7632L24.6764 17.4672C24.5482 17.5096 24.4329 17.5838 24.3411 17.6829C24.2494 17.7819 24.1842 17.9026 24.1516 18.0336C23.9534 18.8329 23.638 19.5986 23.2156 20.3056C23.1431 20.4266 23.1039 20.5646 23.1019 20.7057C23.0999 20.8467 23.1353 20.9858 23.2044 21.1088L24.2716 23.0032L23.0988 24.176L21.0988 23.1728C20.9781 23.1124 20.8441 23.0835 20.7093 23.0888C20.5745 23.0941 20.4432 23.1335 20.3276 23.2032C19.6236 23.6272 18.8588 23.9456 18.0588 24.1472C17.9219 24.1814 17.7966 24.2513 17.6954 24.3496C17.5943 24.448 17.5209 24.5713 17.4828 24.7072L16.8972 26.8016H15.2396L14.5356 24.6784C14.493 24.55 14.4186 24.4346 14.3192 24.3428C14.2199 24.251 14.0989 24.1859 13.9676 24.1536C13.1682 23.9554 12.4026 23.6399 11.6956 23.2176C11.5746 23.1451 11.4366 23.1058 11.2955 23.1039C11.1545 23.1019 11.0154 23.1373 10.8924 23.2064L8.99801 24.2736L7.82521 23.1008L8.82841 21.1008C8.8888 20.9801 8.91768 20.8461 8.91236 20.7113C8.90704 20.5764 8.86771 20.4451 8.79801 20.3296C8.37312 19.624 8.055 18.8595 7.85401 18.0608C7.81975 17.9239 7.7499 17.7985 7.65155 17.6974C7.5532 17.5962 7.42985 17.5229 7.29401 17.4848L5.19961 16.8992V15.24L7.32281 14.536C7.45087 14.4931 7.566 14.4186 7.65748 14.3193C7.74897 14.22 7.81382 14.0991 7.84601 13.968C8.04601 13.168 8.36281 12.4016 8.78361 11.696C8.85613 11.575 8.89536 11.4369 8.89733 11.2959C8.89929 11.1548 8.86393 11.0158 8.79481 10.8928L7.72761 8.99838L8.90041 7.82558L10.9004 8.82878C11.0211 8.88916 11.1551 8.91804 11.2899 8.91273C11.4248 8.90741 11.5561 8.86807 11.6716 8.79838C12.3756 8.37438 13.1404 8.05598 13.9404 7.85438C14.0773 7.82011 14.2026 7.75027 14.3038 7.65192C14.405 7.55357 14.4783 7.43022 14.5164 7.29438L15.102 5.19998H16.7612L17.4652 7.32318C17.5079 7.45104 17.5822 7.56605 17.6812 7.65752C17.7802 7.74899 17.9008 7.81395 18.0316 7.84638C18.8316 8.04638 19.598 8.36317 20.3036 8.78397C20.4246 8.85649 20.5626 8.89573 20.7037 8.89769C20.8448 8.89966 20.9838 8.86589 21.1068 8.79678Z" fill="black"/>
</svg>
