<svg width="50" height="50" viewBox="0 0 50 50" fill="none" xmlns="http://www.w3.org/2000/svg">
<path opacity="0.2" fill-rule="evenodd" clip-rule="evenodd" d="M28.895 8.75C29.258 8.75052 29.613 8.85638 29.917 9.05475C30.221 9.25312 30.4609 9.53546 30.6075 9.8675L31.715 12.3675C31.825 12.6175 31.8775 12.8725 31.8775 13.1225C32.9669 13.4398 34.0182 13.8757 35.0125 14.4225C35.1711 14.2651 35.3565 14.1372 35.56 14.045L37.985 12.9375C38.3328 12.7778 38.7212 12.7284 39.0979 12.7959C39.4747 12.8633 39.8217 13.0445 40.0925 13.315L42.185 15.41C42.4418 15.6665 42.6187 15.992 42.6941 16.347C42.7695 16.702 42.7403 17.0713 42.61 17.41L41.6225 19.96C41.5294 20.2036 41.3863 20.425 41.2025 20.61C41.7475 21.605 42.185 22.655 42.5025 23.7475C42.7254 23.7484 42.9464 23.789 43.155 23.8675L45.655 24.8C46.0133 24.9336 46.3222 25.1735 46.5403 25.4877C46.7583 25.8018 46.8751 26.1751 46.875 26.5575V29.52C46.8745 29.883 46.7686 30.238 46.5702 30.542C46.3719 30.846 46.0895 31.0859 45.7575 31.2325L43.2575 32.34C43.0199 32.4461 42.7627 32.5015 42.5025 32.5025C42.1847 33.5918 41.7488 34.643 41.2025 35.6375C41.3525 35.79 41.4825 35.9725 41.58 36.185L42.69 38.61C42.8494 38.9581 42.8984 39.3466 42.8305 39.7233C42.7625 40.1001 42.5809 40.447 42.31 40.7175L40.215 42.81C39.9585 43.0668 39.633 43.2437 39.278 43.3191C38.923 43.3945 38.5537 43.3653 38.215 43.235L35.665 42.2475C35.4215 42.1543 35.2001 42.0112 35.015 41.8275C34.0197 42.374 32.9676 42.8099 31.8775 43.1275C31.8766 43.3504 31.836 43.5714 31.7575 43.78L30.825 46.28C30.6914 46.6383 30.4515 46.9472 30.1373 47.1653C29.8232 47.3833 29.4499 47.5001 29.0675 47.5H26.1075C25.7441 47.5 25.3885 47.3943 25.084 47.1959C24.7796 46.9975 24.5393 46.7149 24.3925 46.3825L23.285 43.8825C23.1789 43.6449 23.1235 43.3877 23.1225 43.1275C22.0332 42.8097 20.982 42.3738 19.9875 41.8275C19.8289 41.9849 19.6435 42.1127 19.44 42.205L17.015 43.3125C16.6672 43.4722 16.2788 43.5216 15.9021 43.4541C15.5253 43.3867 15.1783 43.2055 14.9075 42.935L12.815 40.84C12.5582 40.5835 12.3813 40.258 12.3059 39.903C12.2305 39.548 12.2597 39.1787 12.39 38.84L13.3775 36.29C13.4708 36.0465 13.6138 35.8251 13.7975 35.64C13.2508 34.6439 12.8149 33.591 12.4975 32.5C12.2746 32.499 12.0537 32.4584 11.845 32.38L9.345 31.4475C8.98669 31.3139 8.67779 31.074 8.45973 30.7598C8.24167 30.4457 8.12487 30.0724 8.125 29.69V26.73C8.12503 26.3666 8.23067 26.011 8.42907 25.7065C8.62747 25.4021 8.91007 25.1618 9.2425 25.015L11.7425 23.9075C11.9801 23.8014 12.2373 23.746 12.4975 23.745C12.8148 22.6556 13.2507 21.6043 13.7975 20.61C13.6409 20.4512 13.514 20.2658 13.4225 20.0625L12.3125 17.6375C12.1531 17.2894 12.1041 16.9009 12.172 16.5242C12.24 16.1474 12.4216 15.8005 12.6925 15.53L14.785 13.4375C15.0417 13.1802 15.3676 13.0031 15.7231 12.9276C16.0787 12.8521 16.4484 12.8816 16.7875 13.0125L19.3375 14C19.5925 14.1 19.81 14.2425 19.9875 14.42C20.982 13.8737 22.0332 13.4377 23.1225 13.12C23.1234 12.8971 23.164 12.6761 23.2425 12.4675L24.175 9.9675C24.3086 9.60919 24.5485 9.30029 24.8627 9.08223C25.1768 8.86417 25.5501 8.74737 25.9325 8.7475L28.895 8.75Z" fill="black"/>
<path fill-rule="evenodd" clip-rule="evenodd" d="M20.58 29.42C21.1599 30.0011 21.8489 30.4619 22.6074 30.776C23.366 31.09 24.179 31.2511 25 31.25C26.68 31.25 28.255 30.5825 29.42 29.42C30.0011 28.8401 30.4619 28.1511 30.776 27.3926C31.09 26.6341 31.2511 25.821 31.25 25C31.25 23.32 30.5825 21.745 29.42 20.58C28.8401 19.9989 28.1511 19.5381 27.3926 19.224C26.6341 18.91 25.821 18.7489 25 18.75C23.32 18.75 21.745 19.4175 20.58 20.58C19.9989 21.1599 19.5381 21.8489 19.224 22.6074C18.91 23.366 18.7489 24.179 18.75 25C18.75 26.68 19.4175 28.255 20.58 29.42ZM27.6525 27.6525C26.9525 28.3525 26.01 28.75 25 28.75C23.99 28.75 23.05 28.35 22.35 27.65C21.65 26.95 21.25 26.0125 21.25 25C21.25 23.9875 21.65 23.05 22.35 22.35C23.05 21.65 23.99 21.25 25 21.25C26.01 21.25 26.95 21.65 27.65 22.35C28.35 23.05 28.75 23.99 28.75 25C28.75 26.01 28.35 26.95 27.65 27.65" fill="black"/>
<path fill-rule="evenodd" clip-rule="evenodd" d="M35.54 9.4325L32.365 11.2175C31.4365 10.7197 30.4598 10.3176 29.45 10.0175L28.275 6.4825C28.1926 6.23323 28.0337 6.01624 27.821 5.86233C27.6083 5.70841 27.3526 5.62537 27.09 5.625H22.65C22.3775 5.62523 22.1125 5.71451 21.8955 5.87924C21.6784 6.04397 21.5211 6.27512 21.4475 6.5375L20.4675 10.045C19.4588 10.3502 18.4838 10.7573 17.5575 11.26L14.225 9.5875C13.99 9.46979 13.7239 9.42914 13.4645 9.47133C13.2051 9.51351 12.9656 9.63639 12.78 9.8225L9.6375 12.9625C9.44454 13.1555 9.32004 13.4064 9.28302 13.6768C9.24601 13.9472 9.29851 14.2222 9.4325 14.46L11.2175 17.635C10.72 18.56 10.3175 19.535 10.0175 20.55L6.4825 21.725C6.23323 21.8074 6.01624 21.9663 5.86233 22.179C5.70841 22.3917 5.62537 22.6474 5.625 22.91V27.3525C5.62523 27.625 5.71451 27.89 5.87924 28.107C6.04397 28.3241 6.27512 28.4814 6.5375 28.555L10.045 29.535C10.35 30.5475 10.7575 31.52 11.26 32.445L9.5875 35.7775C9.46979 36.0125 9.42914 36.2786 9.47133 36.538C9.51351 36.7974 9.63639 37.0369 9.8225 37.2225L12.9625 40.3625C13.1555 40.5555 13.4064 40.68 13.6768 40.717C13.9472 40.754 14.2222 40.7015 14.46 40.5675L17.635 38.7825C18.56 39.28 19.535 39.6825 20.55 39.9825L21.725 43.5175C21.8074 43.7668 21.9663 43.9838 22.179 44.1377C22.3917 44.2916 22.6474 44.3746 22.91 44.375H27.3525C27.625 44.3748 27.89 44.2855 28.107 44.1208C28.3241 43.956 28.4814 43.7249 28.555 43.4625L29.535 39.955C30.5437 39.6498 31.5188 39.2427 32.445 38.74L35.7775 40.4125C36.0122 40.5305 36.2782 40.5716 36.5376 40.5298C36.797 40.4881 37.0366 40.3657 37.2225 40.18L40.3625 37.0375C40.5555 36.8445 40.68 36.5936 40.717 36.3232C40.754 36.0528 40.7015 35.7778 40.5675 35.54L38.7825 32.365C39.28 31.44 39.6825 30.465 39.9825 29.45L43.5175 28.275C43.7668 28.1926 43.9838 28.0337 44.1377 27.821C44.2916 27.6083 44.3746 27.3526 44.375 27.09V22.65C44.3748 22.3775 44.2855 22.1125 44.1208 21.8955C43.956 21.6784 43.7249 21.5211 43.4625 21.4475L39.955 20.4675C39.6499 19.4588 39.2428 18.4837 38.74 17.5575L40.4125 14.225C40.5305 13.9903 40.5716 13.7243 40.5298 13.4649C40.4881 13.2055 40.3657 12.9659 40.18 12.78L37.0375 9.64C36.8445 9.44704 36.5936 9.32254 36.3232 9.28552C36.0528 9.24851 35.7778 9.29851 35.54 9.4325ZM32.98 13.745L35.94 12.0775L37.7725 13.91L36.205 17.035C36.1106 17.2236 36.0655 17.4329 36.0738 17.6436C36.0821 17.8543 36.1436 18.0595 36.2525 18.24C36.915 19.34 37.4125 20.535 37.7275 21.785C37.781 21.9988 37.8902 22.1947 38.0438 22.3528C38.1975 22.5109 38.3902 22.6255 38.6025 22.685L41.875 23.6V26.1925L38.5575 27.2925C38.3572 27.3588 38.177 27.4748 38.0337 27.6295C37.8903 27.7843 37.7884 27.9728 37.7375 28.1775C37.4278 29.4265 36.935 30.6228 36.275 31.7275C36.1617 31.9166 36.1004 32.1322 36.0973 32.3526C36.0942 32.573 36.1495 32.7903 36.2575 32.9825L37.925 35.9425L36.0925 37.775L32.9675 36.2075C32.7789 36.1131 32.5696 36.068 32.3589 36.0763C32.1482 36.0846 31.943 36.1461 31.7625 36.255C30.6625 36.9175 29.4675 37.415 28.2175 37.73C28.0037 37.7835 27.8078 37.8927 27.6497 38.0463C27.4916 38.2 27.377 38.3927 27.3175 38.605L26.4025 41.8775H23.8125L22.7125 38.56C22.6459 38.3594 22.5296 38.179 22.3744 38.0356C22.2192 37.8922 22.0302 37.7905 21.825 37.74C20.576 37.4303 19.3797 36.9375 18.275 36.2775C18.0859 36.1642 17.8703 36.1029 17.6499 36.0998C17.4295 36.0967 17.2122 36.152 17.02 36.26L14.06 37.9275L12.2275 36.095L13.795 32.97C13.8894 32.7814 13.9345 32.5721 13.9262 32.3614C13.9179 32.1507 13.8564 31.9455 13.7475 31.765C13.0836 30.6626 12.5865 29.468 12.2725 28.22C12.219 28.0062 12.1098 27.8103 11.9562 27.6522C11.8025 27.4941 11.6098 27.3795 11.3975 27.32L8.125 26.405V23.8125L11.4425 22.7125C11.6426 22.6456 11.8225 22.5291 11.9654 22.3739C12.1084 22.2187 12.2097 22.0299 12.26 21.825C12.5725 20.575 13.0675 19.3775 13.725 18.275C13.8383 18.0859 13.8996 17.8703 13.9027 17.6499C13.9058 17.4295 13.8505 17.2122 13.7425 17.02L12.075 14.06L13.9075 12.2275L17.0325 13.795C17.2211 13.8894 17.4304 13.9345 17.6411 13.9262C17.8518 13.9179 18.057 13.8564 18.2375 13.7475C19.3375 13.085 20.5325 12.5875 21.7825 12.2725C21.9963 12.219 22.1922 12.1098 22.3503 11.9562C22.5084 11.8025 22.623 11.6098 22.6825 11.3975L23.5975 8.125H26.19L27.29 11.4425C27.3567 11.6423 27.4728 11.822 27.6275 11.9649C27.7822 12.1078 27.9706 12.2093 28.175 12.26C29.425 12.5725 30.6225 13.0675 31.725 13.725C31.9141 13.8383 32.1297 13.8996 32.3501 13.9027C32.5705 13.9058 32.7878 13.853 32.98 13.745Z" fill="black"/>
</svg>
