<svg width="184" height="28" viewBox="0 0 184 28" fill="none" xmlns="http://www.w3.org/2000/svg">
<path d="M8.5 9H1.5C1.9 2.35 7.25 0.249999 13.25 0.249999C19.5 0.249999 24.5 2.5 24.5 9.25V27H17.5V22H17.25C17.25 22 15.65 27.75 9 27.75C4.25 27.75 0.75 25.55 0.75 20.75C0.75 15.9 4.75 13.7 9.05 12.6C13.4 11.5 17.5 11.15 17.5 8.25C17.5 6.2 16 5 13.25 5C10.25 5 8.6 6.2 8.5 9ZM17.5 13.9C16.35 14.95 14 15.5 12 16C9.75 16.55 7.85 17.7 7.85 20C7.85 22 9.25 23.25 11.5 23.25C16.25 23.25 17.5 17.75 17.5 13.9ZM51.2324 0.999998V27H44.4824V22.75H44.2324C44.2324 22.75 41.9824 27.75 36.2324 27.75C28.9824 27.75 26.9824 23 26.9824 17V0.999998H33.9824V15.5C33.9824 20 35.2324 22 38.4824 22C42.2324 22 44.2324 19.75 44.2324 14.5V0.999998H51.2324ZM53.2402 0.999998H76.7402V6.5H68.2402V18.75C68.2402 21 68.9902 21.75 71.2402 21.75C72.7402 21.75 73.4902 21.5 73.4902 21.5V26.75C73.4902 26.75 72.2402 27.25 69.2402 27.25C64.4902 27.25 61.2402 26 61.2402 20V6.5H53.2402V0.999998ZM84.2207 14C84.2207 18.7 86.0207 22.5 90.4707 22.5C94.9207 22.5 96.7207 18.7 96.7207 14C96.7207 9.3 94.9207 5.5 90.4707 5.5C86.0207 5.5 84.2207 9.3 84.2207 14ZM77.2207 14C77.2207 6.4 81.9207 0.249999 90.4707 0.249999C99.0207 0.249999 103.721 6.4 103.721 14C103.721 21.6 99.0207 27.75 90.4707 27.75C81.9207 27.75 77.2207 21.6 77.2207 14ZM112.992 9H105.992C106.392 2.35 111.742 0.249999 117.742 0.249999C123.992 0.249999 128.992 2.5 128.992 9.25V27H121.992V22H121.742C121.742 22 120.142 27.75 113.492 27.75C108.742 27.75 105.242 25.55 105.242 20.75C105.242 15.9 109.242 13.7 113.542 12.6C117.892 11.5 121.992 11.15 121.992 8.25C121.992 6.2 120.492 5 117.742 5C114.742 5 113.092 6.2 112.992 9ZM121.992 13.9C120.842 14.95 118.492 15.5 116.492 16C114.242 16.55 112.342 17.7 112.342 20C112.342 22 113.742 23.25 115.992 23.25C120.742 23.25 121.992 17.75 121.992 13.9ZM131.225 14C131.225 6.4 135.725 0.249999 144.225 0.249999C155.725 0.249999 156.475 10.5 156.475 10.5H149.475C149.475 10.5 149.225 5.5 144.225 5.5C139.775 5.5 138.225 9.3 138.225 14C138.225 18.7 139.775 22.5 144.225 22.5C149.225 22.5 149.475 17.5 149.475 17.5H156.475C156.475 17.5 155.725 27.75 144.225 27.75C135.725 27.75 131.225 21.6 131.225 14ZM158.471 14C158.471 6.4 162.921 0.249999 171.471 0.249999C180.021 0.249999 183.971 6.4 183.971 14C183.971 14.6 183.921 15.5 183.921 15.5H165.521C165.821 19.5 167.521 22.5 171.721 22.5C175.971 22.5 176.721 18.5 176.721 18.5H183.721C183.721 18.5 182.221 27.75 171.471 27.75C162.721 27.75 158.471 21.6 158.471 14ZM171.471 5.5C168.021 5.5 166.321 7.8 165.721 11H176.771C176.321 7.8 174.921 5.5 171.471 5.5Z" fill="white"/>
</svg>
