<svg width="1645" height="1664" viewBox="0 0 1645 1664" fill="none" xmlns="http://www.w3.org/2000/svg">
<g clip-path="url(#clip0_189_2)">
<rect width="1645" height="1664" fill="white"/>
<g opacity="0.2">
<path opacity="0.2" fill-rule="evenodd" clip-rule="evenodd" d="M75.5587 -76.9C79.7113 -76.8941 83.7728 -75.6829 87.2504 -73.4136C90.728 -71.1443 93.4721 -67.9144 95.1497 -64.1158L107.82 -35.5158C109.078 -32.6558 109.679 -29.7386 109.679 -26.8786C122.142 -23.2489 134.169 -18.2617 145.543 -12.0066C147.357 -13.8074 149.478 -15.2698 151.806 -16.3252L179.548 -28.995C183.527 -30.8219 187.97 -31.3873 192.28 -30.6153C196.59 -29.8433 200.561 -27.7709 203.658 -24.6764L227.596 -0.709589C230.534 2.2244 232.557 5.948 233.421 10.0094C234.284 14.0707 233.949 18.2953 232.458 22.1704L221.161 51.3424C220.096 54.129 218.459 56.6619 216.357 58.7784C222.591 70.1612 227.596 82.1732 231.229 94.6714C233.779 94.6817 236.306 95.1465 238.693 96.0442L267.293 106.712C271.392 108.24 274.926 110.985 277.421 114.579C279.915 118.173 281.251 122.443 281.25 126.818V160.709C281.244 164.861 280.033 168.923 277.764 172.4C275.494 175.878 272.264 178.622 268.466 180.3L239.866 192.97C237.147 194.184 234.206 194.817 231.229 194.829C227.593 207.29 222.606 219.316 216.357 230.693C218.073 232.438 219.56 234.525 220.675 236.956L233.374 264.698C235.197 268.68 235.758 273.125 234.981 277.435C234.203 281.745 232.126 285.714 229.026 288.808L205.06 312.746C202.126 315.684 198.402 317.708 194.341 318.571C190.279 319.434 186.055 319.099 182.18 317.608L153.008 306.311C150.221 305.245 147.689 303.609 145.572 301.507C134.186 307.759 122.15 312.746 109.679 316.379C109.668 318.929 109.203 321.456 108.306 323.843L97.6379 352.443C96.1097 356.542 93.3647 360.076 89.771 362.571C86.1773 365.065 81.9068 366.401 77.5321 366.4H43.6697C39.5123 366.4 35.4447 365.191 31.9615 362.921C28.4783 360.652 25.7297 357.419 24.0501 353.616L11.3803 325.016C10.1664 322.297 9.53326 319.356 9.52133 316.379C-2.93981 312.743 -14.9661 307.756 -26.3431 301.507C-28.1576 303.307 -30.2786 304.769 -32.6065 305.825L-60.3484 318.495C-64.3276 320.322 -68.7705 320.887 -73.0804 320.115C-77.3903 319.343 -81.3607 317.271 -84.4583 314.176L-108.396 290.21C-111.334 287.276 -113.358 283.552 -114.221 279.491C-115.084 275.429 -114.749 271.205 -113.258 267.33L-101.961 238.158C-100.894 235.372 -99.2579 232.839 -97.1567 230.722C-103.411 219.327 -108.398 207.281 -112.029 194.8C-114.579 194.789 -117.106 194.324 -119.493 193.427L-148.093 182.759C-152.192 181.231 -155.726 178.486 -158.221 174.893C-160.715 171.299 -162.052 167.028 -162.05 162.654V128.791C-162.05 124.634 -160.841 120.566 -158.571 117.083C-156.302 113.6 -153.069 110.851 -149.266 109.172L-120.666 96.5018C-117.947 95.2879 -115.006 94.6547 -112.029 94.6428C-108.399 82.1797 -103.412 70.1528 -97.1567 58.7784C-98.9477 56.9623 -100.4 54.8413 -101.447 52.515L-114.145 24.773C-115.968 20.7911 -116.529 16.3465 -115.752 12.0364C-114.975 7.72642 -112.897 3.75754 -109.798 0.663207L-85.8597 -23.275C-82.9232 -26.2184 -79.1946 -28.2451 -75.1274 -29.1082C-71.0603 -29.9714 -66.8299 -29.634 -62.951 -28.137L-33.7791 -16.84C-30.8619 -15.696 -28.3737 -14.0658 -26.3431 -12.0352C-14.9663 -18.2853 -2.93996 -23.2723 9.52133 -26.9072C9.53159 -29.4572 9.99647 -31.985 10.8941 -34.3718L21.5619 -62.9718C23.0902 -67.0708 25.8352 -70.6046 29.4289 -73.0993C33.0226 -75.5939 37.2931 -76.9301 41.6677 -76.9286L75.5587 -76.9Z" fill="black"/>
<path fill-rule="evenodd" clip-rule="evenodd" d="M-19.5648 159.565C-12.9307 166.213 -5.04854 171.484 3.62893 175.077C12.3064 178.67 21.6081 180.513 30.9999 180.5C50.2191 180.5 68.2371 172.864 81.5647 159.565C88.2126 152.931 93.4843 145.049 97.077 136.371C100.67 127.694 102.513 118.392 102.5 109C102.5 89.7809 94.8637 71.7629 81.5647 58.4353C74.9306 51.7874 67.0484 46.5157 58.3709 42.923C49.6935 39.3303 40.3917 37.4874 30.9999 37.5001C11.7807 37.5001 -6.23725 45.1363 -19.5648 58.4353C-26.2127 65.0694 -31.4844 72.9516 -35.0771 81.629C-38.6698 90.3065 -40.5127 99.6083 -40.5001 109C-40.5001 128.219 -32.8638 146.237 -19.5648 159.565ZM61.3445 139.345C53.3365 147.353 42.5543 151.9 30.9999 151.9C19.4455 151.9 8.69192 147.324 0.683926 139.316C-7.32407 131.308 -11.9001 120.583 -11.9001 109C-11.9001 97.4171 -7.32407 86.692 0.683926 78.684C8.69192 70.676 19.4455 66.1001 30.9999 66.1001C42.5543 66.1001 53.3079 70.676 61.3159 78.684C69.3239 86.692 73.8999 97.4457 73.8999 109C73.8999 120.554 69.3239 131.308 61.3159 139.316" fill="black"/>
<path fill-rule="evenodd" clip-rule="evenodd" d="M151.578 -69.0922L115.256 -48.6718C104.634 -54.3669 93.4606 -58.9666 81.908 -62.3998L68.466 -102.84C67.5229 -105.692 65.7057 -108.174 63.2724 -109.935C60.8391 -111.696 57.9132 -112.646 54.9096 -112.65H4.11598C0.998542 -112.647 -2.03264 -111.626 -4.51601 -109.742C-6.99939 -107.857 -8.79891 -105.213 -9.64062 -102.211L-20.8518 -62.0852C-32.3914 -58.5932 -43.5456 -53.936 -54.1422 -48.1856L-92.266 -67.319C-94.9542 -68.6656 -97.9985 -69.1307 -100.966 -68.6481C-103.934 -68.1654 -106.674 -66.7597 -108.797 -64.6306L-144.747 -28.709C-146.955 -26.5011 -148.379 -23.6313 -148.802 -20.5379C-149.226 -17.4446 -148.625 -14.2976 -147.092 -11.5776L-126.672 24.7444C-132.363 35.3264 -136.968 46.4804 -140.4 58.092L-180.84 71.534C-183.692 72.4771 -186.174 74.2942 -187.935 76.7275C-189.696 79.1608 -190.646 82.0868 -190.65 85.0904V135.913C-190.647 139.03 -189.626 142.061 -187.742 144.545C-185.857 147.028 -183.213 148.827 -180.211 149.669L-140.085 160.88C-136.596 172.463 -131.934 183.589 -126.186 194.171L-145.319 232.295C-146.666 234.983 -147.131 238.027 -146.648 240.995C-146.165 243.962 -144.76 246.702 -142.631 248.825L-106.709 284.747C-104.501 286.954 -101.631 288.379 -98.5379 288.802C-95.4446 289.226 -92.2976 288.625 -89.5776 287.092L-53.2556 266.672C-42.6736 272.363 -31.5196 276.968 -19.908 280.4L-6.46605 320.84C-5.52293 323.692 -3.7058 326.174 -1.27249 327.935C1.16083 329.696 4.08678 330.646 7.09035 330.65H57.9126C61.03 330.647 64.0611 329.626 66.5445 327.741C69.0279 325.857 70.8275 323.213 71.6692 320.211L82.8804 280.085C94.4202 276.594 105.574 271.937 116.171 266.186L154.295 285.319C156.98 286.669 160.022 287.139 162.99 286.661C165.957 286.184 168.699 284.784 170.825 282.659L206.747 246.709C208.954 244.501 210.379 241.631 210.802 238.538C211.226 235.445 210.625 232.298 209.092 229.578L188.672 193.256C194.363 182.674 198.968 171.52 202.4 159.908L242.84 146.466C245.692 145.523 248.174 143.706 249.935 141.272C251.696 138.839 252.646 135.913 252.65 132.91V82.116C252.647 78.9985 251.626 75.9674 249.741 73.484C247.857 71.0006 245.213 69.2011 242.211 68.3594L202.085 57.1482C198.594 45.6082 193.937 34.4539 188.186 23.8578L207.319 -14.266C208.669 -16.9514 209.139 -19.9939 208.661 -22.9614C208.184 -25.9289 206.784 -28.6705 204.659 -30.7968L168.709 -66.7184C166.501 -68.9259 163.631 -70.3502 160.538 -70.7736C157.445 -71.1971 154.298 -70.6251 151.578 -69.0922ZM122.291 -19.7572L156.154 -38.8334L177.117 -17.8696L159.185 17.8804C158.106 20.0375 157.59 22.4326 157.685 24.8428C157.78 27.2531 158.483 29.6001 159.729 31.6656C167.308 44.2496 172.999 57.9204 176.603 72.2204C177.215 74.6668 178.463 76.9077 180.221 78.7159C181.979 80.5241 184.184 81.8353 186.613 82.5164L224.05 92.984V122.642L186.098 135.226C183.807 135.985 181.745 137.311 180.105 139.082C178.465 140.852 177.299 143.009 176.717 145.351C173.174 159.639 167.536 173.325 159.986 185.963C158.69 188.126 157.988 190.593 157.953 193.114C157.918 195.636 158.55 198.121 159.786 200.32L178.862 234.182L157.898 255.146L122.148 237.214C119.991 236.134 117.596 235.618 115.186 235.713C112.775 235.808 110.428 236.511 108.363 237.757C95.779 245.336 82.1082 251.028 67.8082 254.631C65.3617 255.244 63.1208 256.492 61.3126 258.25C59.5044 260.008 58.1932 262.213 57.5122 264.641L47.0446 302.079H17.415L4.83097 264.126C4.06949 261.832 2.7388 259.768 0.96325 258.128C-0.812298 256.487 -2.97476 255.324 -5.32205 254.746C-19.6106 251.203 -33.2962 245.564 -45.934 238.015C-48.097 236.718 -50.5643 236.017 -53.0857 235.982C-55.6071 235.947 -58.093 236.579 -60.2912 237.814L-94.1536 256.891L-115.117 235.927L-97.1852 200.177C-96.1058 198.02 -95.5896 195.625 -95.6846 193.214C-95.7796 190.804 -96.4828 188.457 -97.7286 186.392C-105.324 173.78 -111.01 160.114 -114.603 145.837C-115.215 143.39 -116.464 141.149 -118.222 139.341C-119.98 137.533 -122.184 136.222 -124.613 135.541L-162.05 125.073V95.415L-124.098 82.831C-121.809 82.0654 -119.751 80.7329 -118.116 78.9576C-116.48 77.1823 -115.321 75.022 -114.746 72.678C-111.171 58.378 -105.508 44.6786 -97.986 32.066C-96.6898 29.903 -95.9885 27.4357 -95.9533 24.9143C-95.9182 22.3929 -96.5504 19.907 -97.7858 17.7088L-116.862 -16.1536L-95.8982 -37.1174L-60.1482 -19.1852C-57.9911 -18.1058 -55.596 -17.5896 -53.1858 -17.6846C-50.7755 -17.7796 -48.4285 -18.4828 -46.363 -19.7286C-33.779 -27.3076 -20.1082 -32.999 -5.80823 -36.6026C-3.3618 -37.2151 -1.12087 -38.4636 0.687335 -40.2215C2.49554 -41.9795 3.80668 -44.1844 4.48776 -46.6126L14.9554 -84.05H44.6136L57.1976 -46.0978C57.9605 -43.8122 59.2887 -41.7565 61.0587 -40.1215C62.8287 -38.4865 64.9831 -37.3253 67.322 -36.7456C81.622 -33.1706 95.3213 -27.5078 107.934 -19.986C110.097 -18.6898 112.564 -17.9885 115.086 -17.9533C117.607 -17.9182 120.093 -18.5218 122.291 -19.7572Z" fill="black"/>
</g>
<g opacity="0.03">
<path opacity="0.2" fill-rule="evenodd" clip-rule="evenodd" d="M1608.4 256.3C1617.66 256.313 1626.72 259.015 1634.48 264.077C1642.24 269.14 1648.36 276.345 1652.1 284.819L1680.37 348.619C1683.17 354.999 1684.51 361.506 1684.51 367.886C1712.32 375.983 1739.15 387.109 1764.52 401.062C1768.57 397.045 1773.3 393.783 1778.49 391.429L1840.38 363.165C1849.25 359.09 1859.16 357.828 1868.78 359.551C1878.39 361.273 1887.25 365.896 1894.16 372.799L1947.56 426.263C1954.12 432.808 1958.63 441.115 1960.55 450.175C1962.48 459.235 1961.73 468.659 1958.41 477.303L1933.21 542.379C1930.83 548.596 1927.18 554.246 1922.49 558.967C1936.4 584.36 1947.56 611.156 1955.66 639.036C1961.35 639.059 1966.99 640.096 1972.32 642.099L2036.12 665.896C2045.26 669.305 2053.14 675.429 2058.71 683.445C2064.27 691.462 2067.25 700.989 2067.25 710.748V786.351C2067.24 795.614 2064.54 804.674 2059.47 812.432C2054.41 820.19 2047.21 826.311 2038.73 830.054L1974.93 858.317C1968.87 861.025 1962.3 862.437 1955.66 862.464C1947.55 890.262 1936.43 917.09 1922.49 942.469C1926.32 946.361 1929.63 951.018 1932.12 956.441L1960.45 1018.33C1964.52 1027.21 1965.77 1037.13 1964.03 1046.74C1962.3 1056.35 1957.66 1065.21 1950.75 1072.11L1897.29 1125.51C1890.74 1132.07 1882.44 1136.58 1873.38 1138.5C1864.32 1140.43 1854.89 1139.68 1846.25 1136.36L1781.17 1111.16C1774.96 1108.78 1769.31 1105.13 1764.58 1100.44C1739.18 1114.38 1712.33 1125.51 1684.51 1133.61C1684.49 1139.3 1683.45 1144.94 1681.45 1150.27L1657.65 1214.07C1654.24 1223.21 1648.12 1231.09 1640.1 1236.66C1632.09 1242.22 1622.56 1245.2 1612.8 1245.2H1537.26C1527.99 1245.2 1518.92 1242.5 1511.14 1237.44C1503.37 1232.38 1497.24 1225.17 1493.5 1216.68L1465.23 1152.88C1462.53 1146.82 1461.11 1140.26 1461.09 1133.61C1433.29 1125.5 1406.46 1114.38 1381.08 1100.44C1377.03 1104.45 1372.3 1107.72 1367.11 1110.07L1305.22 1138.34C1296.35 1142.41 1286.44 1143.67 1276.82 1141.95C1267.21 1140.23 1258.35 1135.6 1251.44 1128.7L1198.04 1075.24C1191.49 1068.69 1186.97 1060.39 1185.05 1051.33C1183.12 1042.27 1183.87 1032.84 1187.19 1024.2L1212.39 959.121C1214.77 952.906 1218.42 947.257 1223.11 942.533C1209.16 917.113 1198.04 890.242 1189.94 862.4C1184.25 862.375 1178.61 861.338 1173.28 859.338L1109.48 835.54C1100.34 832.131 1092.46 826.008 1086.89 817.991C1081.33 809.974 1078.35 800.448 1078.35 790.689V715.15C1078.35 705.876 1081.05 696.801 1086.11 689.031C1091.17 681.261 1098.38 675.13 1106.87 671.383L1170.67 643.12C1176.73 640.412 1183.3 638.999 1189.94 638.973C1198.03 611.17 1209.16 584.341 1223.11 558.967C1219.12 554.916 1215.88 550.184 1213.54 544.995L1185.21 483.109C1181.15 474.226 1179.9 464.311 1181.63 454.697C1183.36 445.082 1188 436.228 1194.91 429.326L1248.31 375.925C1254.86 369.359 1263.18 364.838 1272.25 362.912C1281.33 360.987 1290.76 361.74 1299.42 365.079L1364.49 390.28C1371 392.832 1376.55 396.469 1381.08 400.999C1406.46 387.056 1433.29 375.931 1461.09 367.823C1461.11 362.134 1462.15 356.495 1464.15 351.171L1487.95 287.371C1491.36 278.227 1497.48 270.344 1505.5 264.779C1513.51 259.214 1523.04 256.233 1532.8 256.236L1608.4 256.3Z" fill="black"/>
<path fill-rule="evenodd" clip-rule="evenodd" d="M1396.2 783.799C1411 798.628 1428.58 810.388 1447.94 818.403C1467.3 826.417 1488.05 830.528 1509 830.5C1551.87 830.5 1592.07 813.466 1621.8 783.799C1636.63 768.999 1648.39 751.416 1656.4 732.059C1664.42 712.701 1668.53 691.951 1668.5 671C1668.5 628.127 1651.47 587.933 1621.8 558.202C1607 543.372 1589.42 531.612 1570.06 523.598C1550.7 515.583 1529.95 511.472 1509 511.5C1466.13 511.5 1425.93 528.535 1396.2 558.202C1381.37 573.001 1369.61 590.584 1361.6 609.942C1353.58 629.299 1349.47 650.049 1349.5 671C1349.5 713.874 1366.53 754.068 1396.2 783.799ZM1576.69 738.692C1558.83 756.556 1534.78 766.7 1509 766.7C1483.22 766.7 1459.24 756.492 1441.37 738.628C1423.51 720.764 1413.3 696.839 1413.3 671C1413.3 645.161 1423.51 621.236 1441.37 603.372C1459.24 585.508 1483.22 575.3 1509 575.3C1534.78 575.3 1558.76 585.508 1576.63 603.372C1594.49 621.236 1604.7 645.225 1604.7 671C1604.7 696.775 1594.49 720.764 1576.63 738.628" fill="black"/>
<path fill-rule="evenodd" clip-rule="evenodd" d="M1777.98 273.717L1696.95 319.271C1673.26 306.566 1648.34 296.305 1622.56 288.647L1592.58 198.433C1590.47 192.072 1586.42 186.535 1580.99 182.607C1575.56 178.679 1569.04 176.56 1562.34 176.55H1449.03C1442.07 176.556 1435.31 178.834 1429.77 183.038C1424.23 187.242 1420.22 193.141 1418.34 199.837L1393.33 289.348C1367.59 297.138 1342.71 307.527 1319.07 320.355L1234.02 277.673C1228.03 274.669 1221.23 273.632 1214.61 274.708C1207.99 275.785 1201.88 278.921 1197.15 283.67L1116.95 363.803C1112.02 368.729 1108.85 375.13 1107.9 382.031C1106.96 388.931 1108.3 395.952 1111.72 402.019L1157.27 483.045C1144.57 506.651 1134.3 531.533 1126.65 557.436L1036.43 587.422C1030.07 589.526 1024.53 593.58 1020.61 599.008C1016.68 604.436 1014.56 610.963 1014.55 617.663V731.036C1014.56 737.99 1016.83 744.752 1021.04 750.292C1025.24 755.832 1031.14 759.846 1037.84 761.724L1127.35 786.733C1135.13 812.572 1145.53 837.39 1158.36 860.996L1115.67 946.042C1112.67 952.039 1111.63 958.83 1112.71 965.45C1113.78 972.07 1116.92 978.182 1121.67 982.918L1201.8 1063.05C1206.73 1067.98 1213.13 1071.15 1220.03 1072.1C1226.93 1073.04 1233.95 1071.7 1240.02 1068.28L1321.05 1022.73C1344.65 1035.43 1369.53 1045.7 1395.44 1053.35L1425.42 1143.57C1427.53 1149.93 1431.58 1155.47 1437.01 1159.39C1442.44 1163.32 1448.96 1165.44 1455.66 1165.45H1569.04C1575.99 1165.44 1582.75 1163.17 1588.29 1158.96C1593.83 1154.76 1597.85 1148.86 1599.72 1142.16L1624.73 1052.65C1650.48 1044.86 1675.36 1034.47 1699 1021.64L1784.04 1064.33C1790.03 1067.34 1796.82 1068.39 1803.44 1067.32C1810.06 1066.26 1816.17 1063.13 1820.92 1058.39L1901.05 978.197C1905.98 973.272 1909.15 966.87 1910.1 959.969C1911.04 953.069 1909.7 946.049 1906.28 939.981L1860.73 858.955C1873.43 835.349 1883.7 810.467 1891.35 784.564L1981.57 754.578C1987.93 752.474 1993.47 748.421 1997.39 742.992C2001.32 737.564 2003.44 731.037 2003.45 724.337V611.028C2003.44 604.074 2001.17 597.312 1996.96 591.772C1992.76 586.232 1986.86 582.218 1980.16 580.34L1890.65 555.331C1882.86 529.588 1872.48 504.705 1859.64 481.067L1902.33 396.022C1905.34 390.032 1906.39 383.245 1905.32 376.625C1904.26 370.005 1901.13 363.889 1896.39 359.146L1816.2 279.013C1811.27 274.088 1804.87 270.911 1797.97 269.967C1791.07 269.022 1784.05 270.298 1777.98 273.717ZM1712.65 383.772L1788.19 341.218L1834.95 387.983L1794.95 467.733C1792.54 472.545 1791.39 477.888 1791.6 483.265C1791.82 488.642 1793.38 493.877 1796.16 498.485C1813.07 526.557 1825.77 557.053 1833.81 588.953C1835.17 594.411 1837.96 599.41 1841.88 603.443C1845.8 607.477 1850.72 610.402 1856.14 611.921L1939.65 635.272V701.433L1854.99 729.505C1849.88 731.198 1845.28 734.156 1841.62 738.105C1837.96 742.054 1835.36 746.865 1834.06 752.09C1826.16 783.965 1813.58 814.494 1796.74 842.686C1793.85 847.511 1792.28 853.015 1792.2 858.64C1792.13 864.264 1793.54 869.81 1796.29 874.713L1838.85 950.253L1792.08 997.018L1712.33 957.015C1707.52 954.608 1702.18 953.456 1696.8 953.668C1691.42 953.88 1686.19 955.448 1681.58 958.228C1653.51 975.135 1623.01 987.831 1591.11 995.87C1585.65 997.236 1580.65 1000.02 1576.62 1003.94C1572.59 1007.86 1569.66 1012.78 1568.14 1018.2L1544.79 1101.71H1478.69L1450.62 1017.05C1448.92 1011.93 1445.96 1007.33 1442 1003.67C1438.03 1000.01 1433.21 997.414 1427.97 996.125C1396.1 988.221 1365.57 975.644 1337.38 958.802C1332.55 955.91 1327.05 954.346 1321.42 954.267C1315.8 954.189 1310.25 955.599 1305.35 958.355L1229.81 1000.91L1183.05 954.144L1223.05 874.394C1225.46 869.582 1226.61 864.24 1226.4 858.863C1226.18 853.486 1224.62 848.25 1221.84 843.643C1204.89 815.509 1192.21 785.023 1184.19 753.174C1182.83 747.717 1180.04 742.718 1176.12 738.684C1172.2 734.651 1167.28 731.726 1161.86 730.207L1078.35 706.856V640.695L1163.01 612.623C1168.12 610.915 1172.71 607.943 1176.36 603.983C1180.01 600.022 1182.59 595.203 1183.88 589.974C1191.85 558.074 1204.48 527.514 1221.26 499.378C1224.15 494.553 1225.72 489.049 1225.8 483.424C1225.87 477.8 1224.46 472.254 1221.71 467.35L1179.15 391.811L1225.92 345.046L1305.67 385.048C1310.48 387.456 1315.82 388.608 1321.2 388.396C1326.58 388.184 1331.81 386.615 1336.42 383.836C1364.49 366.929 1394.99 354.233 1426.89 346.194C1432.35 344.828 1437.35 342.043 1441.38 338.121C1445.41 334.2 1448.34 329.281 1449.86 323.864L1473.21 240.35H1539.37L1567.44 325.013C1569.14 330.111 1572.11 334.697 1576.05 338.345C1580 341.992 1584.81 344.582 1590.03 345.875C1621.93 353.85 1652.49 366.483 1680.62 383.262C1685.45 386.154 1690.95 387.718 1696.58 387.797C1702.2 387.875 1707.75 386.529 1712.65 383.772Z" fill="black"/>
</g>
<g opacity="0.1">
<path opacity="0.2" fill-rule="evenodd" clip-rule="evenodd" d="M1033.42 1558.54C1036.68 1559.88 1039.47 1562.14 1041.47 1565.04C1043.47 1567.94 1044.58 1571.35 1044.68 1574.87L1045.42 1601.39C1045.48 1604.04 1045.01 1606.52 1044.09 1608.76C1052.7 1615.62 1060.53 1623.4 1067.45 1631.97C1069.45 1631.14 1071.58 1630.67 1073.75 1630.59L1099.59 1629.58C1103.3 1629.43 1106.96 1630.41 1110.1 1632.4C1113.23 1634.4 1115.68 1637.3 1117.11 1640.72L1128.18 1667.23C1129.54 1670.47 1129.93 1674.05 1129.3 1677.51C1128.67 1680.97 1127.05 1684.18 1124.63 1686.74L1106.39 1705.99C1104.65 1707.83 1102.56 1709.3 1100.23 1710.28C1101.45 1721.21 1101.52 1732.25 1100.34 1743.22C1102.34 1744.05 1104.18 1745.23 1105.76 1746.7L1124.76 1764.27C1127.49 1766.79 1129.38 1770.08 1130.18 1773.7C1130.98 1777.32 1130.65 1781.1 1129.24 1784.53L1118.34 1811.12C1117 1814.38 1114.74 1817.17 1111.84 1819.17C1108.94 1821.17 1105.53 1822.28 1102.01 1822.38L1075.5 1823.12C1072.97 1823.19 1070.46 1822.74 1068.12 1821.79C1061.26 1830.4 1053.48 1838.23 1044.92 1845.15C1045.7 1847.07 1046.2 1849.18 1046.29 1851.45L1047.33 1877.3C1047.48 1881.01 1046.49 1884.67 1044.49 1887.81C1042.49 1890.94 1039.59 1893.38 1036.16 1894.81L1009.66 1905.88C1006.41 1907.24 1002.84 1907.63 999.373 1907C995.909 1906.37 992.702 1904.75 990.142 1902.33L970.891 1884.09C969.049 1882.35 967.588 1880.26 966.604 1877.93C955.66 1879.17 944.613 1879.21 933.661 1878.04C932.833 1880.04 931.655 1881.88 930.183 1883.46L912.613 1902.46C910.095 1905.19 906.804 1907.08 903.183 1907.88C899.561 1908.68 895.781 1908.35 892.349 1906.94L865.784 1896.05C862.523 1894.71 859.721 1892.45 857.719 1889.55C855.716 1886.65 854.6 1883.23 854.506 1879.71L853.768 1853.2C853.69 1850.67 854.14 1848.16 855.088 1845.82C846.482 1838.96 838.652 1831.18 831.738 1822.62C829.735 1823.44 827.6 1823.91 825.435 1823.99L799.595 1825C795.886 1825.16 792.218 1824.17 789.085 1822.18C785.953 1820.19 783.505 1817.28 782.07 1813.86L771.002 1787.36C769.641 1784.11 769.251 1780.54 769.881 1777.07C770.511 1773.61 772.132 1770.4 774.548 1767.84L792.796 1748.59C794.529 1746.75 796.628 1745.29 798.958 1744.3C797.718 1733.35 797.681 1722.3 798.848 1711.34C796.851 1710.51 795.018 1709.33 793.433 1707.86L774.429 1690.29C771.705 1687.77 769.816 1684.48 769.015 1680.86C768.214 1677.24 768.54 1673.46 769.948 1670.03L780.843 1643.46C782.18 1640.2 784.437 1637.4 787.338 1635.4C790.239 1633.39 793.66 1632.28 797.184 1632.18L823.697 1631.45C826.22 1631.37 828.731 1631.82 831.07 1632.77C837.928 1624.16 845.709 1616.33 854.276 1609.41C853.455 1607.41 852.998 1605.28 852.925 1603.12L851.889 1577.27C851.74 1573.56 852.73 1569.89 854.726 1566.76C856.722 1563.63 859.629 1561.19 863.056 1559.76L889.537 1548.68C892.787 1547.31 896.364 1546.92 899.833 1547.56C903.301 1548.19 906.511 1549.81 909.073 1552.23L928.323 1570.48C930.244 1572.32 931.671 1574.4 932.611 1576.64C943.547 1575.4 954.586 1575.36 965.531 1576.52C966.36 1574.52 967.538 1572.69 969.01 1571.1L986.58 1552.1C989.097 1549.37 992.388 1547.48 996.01 1546.68C999.631 1545.88 1003.41 1546.21 1006.84 1547.62L1033.42 1558.54Z" fill="black"/>
<path fill-rule="evenodd" clip-rule="evenodd" d="M882.721 1713.44C885.787 1720.79 890.274 1727.47 895.926 1733.08C901.577 1738.69 908.282 1743.12 915.653 1746.14C930.731 1752.32 947.323 1752.13 962.057 1745.98C969.406 1742.91 976.078 1738.43 981.688 1732.78C987.298 1727.12 991.736 1720.42 994.748 1713.05C1000.93 1697.97 1000.74 1681.38 994.592 1666.64C991.527 1659.29 987.039 1652.62 981.388 1647.01C975.736 1641.4 969.032 1636.96 961.66 1633.95C946.582 1627.77 929.991 1627.96 915.257 1634.11C907.907 1637.17 901.236 1641.66 895.625 1647.31C890.015 1652.97 885.577 1659.67 882.565 1667.04C876.382 1682.12 876.576 1698.71 882.721 1713.44ZM952.699 1723.61C943.841 1727.32 933.919 1727.42 924.855 1723.7C915.79 1719.98 908.826 1712.93 905.121 1704.07C901.415 1695.22 901.275 1685.33 905.002 1676.24C908.728 1667.16 915.769 1660.21 924.627 1656.51C933.486 1652.8 943.394 1652.67 952.459 1656.39C961.523 1660.11 968.487 1667.16 972.193 1676.01C975.899 1684.87 976.029 1694.78 972.311 1703.85C968.594 1712.91 961.545 1719.87 952.686 1723.58" fill="black"/>
<path fill-rule="evenodd" clip-rule="evenodd" d="M1090.55 1589.12L1055.48 1593.46C1048.98 1585.57 1041.7 1578.37 1033.74 1571.96L1036.2 1535.91C1036.38 1533.37 1035.75 1530.84 1034.41 1528.67C1033.07 1526.51 1031.08 1524.82 1028.72 1523.85L988.876 1507.51C986.43 1506.51 983.723 1506.34 981.169 1507.02C978.614 1507.7 976.352 1509.19 974.726 1511.28L953.021 1539.15C942.845 1538.17 932.596 1538.24 922.433 1539.34L898.681 1512.07C897.005 1510.14 894.767 1508.8 892.283 1508.22C889.8 1507.65 887.198 1507.87 884.848 1508.86L845.088 1525.47C842.646 1526.49 840.605 1528.29 839.278 1530.58C837.951 1532.87 837.409 1535.53 837.737 1538.16L842.071 1573.22C834.202 1579.69 827.001 1586.96 820.573 1594.96L784.523 1592.5C781.982 1592.32 779.45 1592.95 777.286 1594.29C775.122 1595.63 773.435 1597.62 772.466 1599.98L756.115 1639.85C755.114 1642.29 754.94 1645 755.62 1647.55C756.299 1650.11 757.794 1652.37 759.878 1654L787.75 1675.7C786.761 1685.91 786.839 1696.14 787.944 1706.29L760.669 1730.04C758.747 1731.72 757.403 1733.96 756.827 1736.44C756.251 1738.92 756.472 1741.53 757.459 1743.88L774.083 1783.61C775.105 1786.05 776.898 1788.1 779.188 1789.42C781.479 1790.75 784.141 1791.29 786.768 1790.96L821.832 1786.63C828.302 1794.5 835.571 1801.7 843.576 1808.13L841.111 1844.18C840.933 1846.72 841.56 1849.25 842.903 1851.41C844.245 1853.58 846.235 1855.27 848.59 1856.24L888.46 1872.59C890.906 1873.59 893.612 1873.76 896.167 1873.08C898.721 1872.4 900.984 1870.91 902.61 1868.82L924.314 1840.95C934.491 1841.92 944.739 1841.86 954.902 1840.76L978.655 1868.03C980.327 1869.96 982.563 1871.3 985.044 1871.88C987.526 1872.46 990.127 1872.25 992.479 1871.26L1032.23 1854.62C1034.67 1853.6 1036.71 1851.8 1038.04 1849.51C1039.36 1847.22 1039.9 1844.56 1039.58 1841.93L1035.24 1806.87C1043.11 1800.4 1050.31 1793.13 1056.74 1785.12L1092.79 1787.59C1095.33 1787.77 1097.86 1787.14 1100.03 1785.8C1102.19 1784.46 1103.88 1782.47 1104.85 1780.11L1121.19 1740.26C1122.19 1737.82 1122.36 1735.11 1121.68 1732.56C1121.01 1730 1119.51 1727.74 1117.43 1726.11L1089.55 1704.41C1090.53 1694.23 1090.46 1683.98 1089.36 1673.82L1116.64 1650.07C1118.56 1648.4 1119.91 1646.16 1120.49 1643.68C1121.07 1641.2 1120.85 1638.6 1119.87 1636.24L1103.22 1596.5C1102.2 1594.06 1100.41 1592.02 1098.12 1590.69C1095.83 1589.36 1093.17 1588.8 1090.55 1589.12ZM1051.7 1618.41L1084.4 1614.33L1094.1 1637.53L1068.53 1659.8C1066.99 1661.15 1065.82 1662.86 1065.12 1664.78C1064.41 1666.7 1064.21 1668.77 1064.52 1670.79C1066.42 1683.1 1066.49 1695.66 1064.71 1708.03C1064.41 1710.15 1064.67 1712.31 1065.46 1714.29C1066.26 1716.28 1067.57 1718.02 1069.25 1719.33L1095.26 1739.59L1085.71 1762.86L1051.89 1760.52C1049.85 1760.38 1047.81 1760.75 1045.95 1761.61C1044.09 1762.47 1042.49 1763.79 1041.28 1765.44C1033.9 1775.51 1025.07 1784.43 1015.08 1791.92C1013.37 1793.2 1012.03 1794.91 1011.19 1796.88C1010.35 1798.84 1010.05 1801 1010.31 1803.12L1014.38 1835.82L991.189 1845.52L968.913 1819.95C967.568 1818.41 965.855 1817.24 963.933 1816.53C962.012 1815.83 959.945 1815.63 957.923 1815.94C945.613 1817.84 933.057 1817.91 920.68 1816.13C918.563 1815.83 916.404 1816.09 914.42 1816.88C912.435 1817.68 910.697 1818.99 909.382 1820.67L889.126 1846.68L865.881 1837.14L868.219 1803.32C868.36 1801.28 867.98 1799.23 867.115 1797.37C866.25 1795.51 864.928 1793.9 863.272 1792.7C853.203 1785.32 844.281 1776.49 836.795 1766.5C835.516 1764.79 833.806 1763.45 831.839 1762.61C829.872 1761.77 827.719 1761.47 825.597 1761.73L792.894 1765.8L783.193 1742.61L808.762 1720.33C810.303 1718.99 811.479 1717.27 812.18 1715.35C812.88 1713.43 813.084 1711.36 812.771 1709.34C810.87 1697.01 810.806 1684.45 812.581 1672.1C812.888 1669.98 812.629 1667.82 811.832 1665.84C811.034 1663.85 809.726 1662.12 808.041 1660.8L782.039 1640.54L791.581 1617.28L825.402 1619.62C827.444 1619.75 829.488 1619.37 831.342 1618.5C833.196 1617.64 834.8 1616.31 836.006 1614.66C843.411 1604.59 852.261 1595.67 862.219 1588.19C863.932 1586.91 865.276 1585.2 866.115 1583.24C866.953 1581.27 867.257 1579.12 866.995 1576.99L862.924 1544.29L886.115 1534.59L908.391 1560.16C909.736 1561.7 911.449 1562.88 913.371 1563.58C915.292 1564.28 917.36 1564.48 919.381 1564.17C931.691 1562.27 944.247 1562.2 956.625 1563.98C958.741 1564.28 960.9 1564.03 962.885 1563.23C964.869 1562.43 966.607 1561.12 967.922 1559.44L988.178 1533.44L1011.45 1542.98L1009.11 1576.8C1008.97 1578.84 1009.35 1580.88 1010.21 1582.73C1011.08 1584.58 1012.39 1586.19 1014.04 1587.39C1024.11 1594.8 1033.03 1603.65 1040.51 1613.61C1041.79 1615.32 1043.5 1616.66 1045.47 1617.5C1047.43 1618.34 1049.58 1618.67 1051.7 1618.41Z" fill="black"/>
</g>
</g>
<defs>
<clipPath id="clip0_189_2">
<rect width="1645" height="1664" fill="white"/>
</clipPath>
</defs>
</svg>
